/vscmnt/brussel_pixiu_data/_data_brussel/112/vsc11236/PredSimResults/SUBJ06opt3D/SUBJ06opt3D_12158489.mot
version=1
nRows=9
nColumns=50
inDegrees=yes
endheader
                time	         pelvis_tilt	         pelvis_list	     pelvis_rotation	           pelvis_tx	           pelvis_ty	           pelvis_tz	       hip_flexion_r	     hip_adduction_r	      hip_rotation_r	        knee_angle_r	       ankle_angle_r	         mtp_angle_r	       hip_flexion_l	     hip_adduction_l	      hip_rotation_l	        knee_angle_l	       ankle_angle_l	         mtp_angle_l	    lumbar_extension	      lumbar_bending	     lumbar_rotation	 ercspn_r/activation	 intobl_r/activation	 extobl_r/activation	    abd_r/activation	    add_r/activation	hamstrings_r/activation	bifemsh_r/activation	glut_max_r/activation	iliopsoas_r/activation	rect_fem_r/activation	  vasti_r/activation	gastroc_r/activation	 soleus_r/activation	tib_ant_r/activation	 ercspn_l/activation	 intobl_l/activation	 extobl_l/activation	    abd_l/activation	    add_l/activation	hamstrings_l/activation	bifemsh_l/activation	glut_max_l/activation	iliopsoas_l/activation	rect_fem_l/activation	  vasti_l/activation	gastroc_l/activation	 soleus_l/activation	tib_ant_l/activation	
          0.00000000	         -5.28804668	         -1.22044708	          5.52275615	          0.00000000	          0.93227778	         -0.01152129	         31.81960959	         -1.20944893	         -9.06009466	         -9.85383278	          0.12346189	          0.22132563	        -10.80625307	         -1.32264991	         -7.80549411	        -11.15787105	          8.29010189	         33.03081564	         -5.91064662	         -0.10095720	         -7.82463480	          0.18299848	          0.18303361	          0.00999999	          0.00999999	          0.32058429	          0.05219250	          0.06388231	          0.01845747	          0.12073416	          0.01152948	          0.01000002	          0.00999999	          0.00999999	          0.50046495	          0.13017786	          0.00999999	          0.00999999	          0.07635149	          0.00999999	          0.00999999	          0.20088325	          0.01566270	          0.47679960	          0.02539746	          0.00999999	          0.23318006	          0.35714048	          0.02107814	
          0.01229519	         -5.37345872	         -1.16511804	          5.53761300	          0.01673616	          0.93055044	         -0.01080629	         31.86098813	         -1.11872667	         -9.24591392	        -11.31596330	         -0.18323829	          0.22515558	        -11.25360100	         -1.46002638	         -8.20876168	        -11.98592537	          7.26351157	         34.87207361	         -5.57916645	          0.23961537	         -8.29179892	          0.17070231	          0.15190522	          0.00999999	          0.00999999	          0.40107888	          0.05441439	          0.05301789	          0.08048042	          0.10020099	          0.00999999	          0.02015847	          0.01000000	          0.01749339	          0.50829933	          0.16756158	          0.00999999	          0.00999999	          0.06336644	          0.00999999	          0.00999999	          0.16671919	          0.01451830	          0.46681960	          0.02107813	          0.00999999	          0.19755446	          0.33375290	          0.01749339	
          0.02459038	         -5.43467415	         -1.15912748	          5.53033778	          0.03394441	          0.92900125	         -0.01004875	         31.66561418	         -1.06038536	         -9.21634624	        -12.74202068	         -0.43185315	          0.19691105	        -11.57881831	         -1.68331713	         -8.61041202	        -13.11301808	          6.12743937	         36.73346091	         -5.21499434	          0.64584888	         -8.71915548	          0.14167109	          0.12607081	          0.00999999	          0.03313543	          0.33286769	          0.06060355	          0.04400118	          0.06679318	          0.08315988	          0.00999999	          0.03756037	          0.01204919	          0.01451830	          0.56113627	          0.15170991	          0.00999999	          0.00999999	          0.05258976	          0.00999999	          0.00999999	          0.17338491	          0.01204919	          0.46726604	          0.01749339	          0.00999999	          0.16395652	          0.30628176	          0.01451830	
          0.03688557	         -5.47581835	         -1.18198556	          5.48799301	          0.05138457	          0.92771741	         -0.00915503	         31.30452535	         -0.98303828	         -9.30953242	        -13.92314383	         -0.78046038	          0.18466859	        -11.68765835	         -1.98405578	         -9.02106809	        -14.67476310	          4.85960402	         38.60703338	         -4.84900303	          1.08213225	         -9.09220895	          0.15122051	          0.10463004	          0.00999999	          0.07835192	          0.27625713	          0.06713387	          0.03651793	          0.07662583	          0.06901694	          0.00999999	          0.08140091	          0.00999999	          0.01204919	          0.61825240	          0.15767484	          0.00999999	          0.00999999	          0.04364586	          0.00999999	          0.00999999	          0.18153568	          0.00999999	          0.40573987	          0.01451830	          0.00999999	          0.13607255	          0.26820801	          0.01204919	
          0.04918076	         -5.49926950	         -1.22809235	          5.41070479	          0.06881459	          0.92684821	         -0.00813219	         30.86519939	         -0.88179494	         -9.49748881	        -14.99693639	         -1.03951778	          0.14544731	        -11.50330812	         -2.36670546	         -9.44483402	        -16.76346158	          3.40689701	         40.44990007	         -4.50698110	          1.54246597	         -9.40345210	          0.14662145	          0.08683568	          0.00999999	          0.12810564	          0.23600869	          0.06786869	          0.03030735	          0.12998808	          0.05727928	          0.00999999	          0.13770119	          0.00999999	          0.00999999	          0.64732850	          0.20074194	          0.00999999	          0.00999999	          0.03622304	          0.00999999	          0.00999999	          0.15110390	          0.00999999	          0.33673599	          0.01204919	          0.00999999	          0.11293079	          0.22259407	          0.00999999	
          0.06147595	         -5.50822765	         -1.30854632	          5.30833378	          0.08600673	          0.92661570	         -0.00699382	         30.40069277	         -0.73116219	         -9.66963322	        -16.10905678	         -0.76027601	          0.13217044	        -10.97039014	         -2.85345840	         -9.87425801	        -19.41855384	          1.71186799	         42.10983200	         -4.20550171	          2.03537801	         -9.65780496	          0.13496210	          0.07206760	          0.00999999	          0.17624757	          0.19587087	          0.06873756	          0.02515300	          0.13861550	          0.04753784	          0.00999999	          0.21676195	          0.00999999	          0.00999999	          0.58795104	          0.24579274	          0.00999999	          0.00999999	          0.03006261	          0.04521564	          0.07956217	          0.12873139	          0.00999999	          0.27946754	          0.00999999	          0.00999999	          0.09372474	          0.18473766	          0.00999999	
          0.07377114	         -5.50779606	         -1.41907663	          5.19221088	          0.10277029	          0.92723233	         -0.00576317	         29.87565744	         -0.50933925	         -9.71555886	        -17.18040934	          0.14914641	          0.26976227	        -10.05341407	         -3.44719550	        -10.31024607	        -22.64238400	         -0.22855188	         43.24929491	         -3.95580817	          2.55049461	         -9.86601262	          0.12272993	          0.05981112	          0.00999999	          0.20210541	          0.18571045	          0.06849753	          0.02087525	          0.11990308	          0.03945311	          0.00999999	          0.26442859	          0.00999999	          0.00999999	          0.49409848	          0.26197846	          0.00999999	          0.00999999	          0.02494989	          0.15264868	          0.11423923	          0.11361526	          0.00999999	          0.23193870	          0.00999999	          0.00999999	          0.07778504	          0.15331946	          0.00999999	
          0.08606633	         -5.50264064	         -1.52048439	          5.05922819	          0.11900520	          0.92878066	         -0.00447794	         29.21049883	         -0.24884905	         -9.66795332	        -17.97788872	          1.24841238	          0.59948648	         -8.75042464	         -4.11217104	        -10.76975775	        -26.42376941	         -2.27190680	         43.29542316	         -3.76556228	          3.04301875	        -10.02575219	          0.12054864	          0.04963908	          0.00999999	          0.20740838	          0.18124177	          0.07208746	          0.01749338	          0.09951125	          0.03274335	          0.00999999	          0.27258568	          0.00999999	          0.00999999	          0.41006751	          0.25706393	          0.00999999	          0.00999999	          0.02070668	          0.21895034	          0.12479404	          0.09429279	          0.00999999	          0.19249306	          0.00999999	          0.00999999	          0.06455619	          0.12724453	          0.00999999	
          0.09836152	         -5.49478785	         -1.57538463	          4.90557128	          0.13470885	          0.93116681	         -0.00318054	         28.36387115	          0.00646577	         -9.57488897	        -18.37186749	          2.20456466	          1.03688105	         -7.10402920	         -4.80990092	        -11.23615999	        -30.62757100	         -4.54819600	         42.26643199	         -3.63521007	          3.47383207	        -10.13148589	          0.11094720	          0.04119700	          0.00999999	          0.19811045	          0.17428623	          0.07638375	          0.01451830	          0.08258744	          0.02717471	          0.00999999	          0.26023782	          0.00999999	          0.00999999	          0.35140475	          0.25132577	          0.00999999	          0.00999999	          0.01718511	          0.24580711	          0.15211939	          0.10335712	          0.00999999	          0.15975590	          0.00999999	          0.00999999	          0.05357717	          0.10560415	          0.00999999	
